<svg width="258" height="292" viewBox="0 0 258 292" fill="none" xmlns="http://www.w3.org/2000/svg">
<g clip-path="url(#clip0_12_217)">
<path d="M5.87965 81.9771C9.10855 79.6918 13.2642 84.7284 11.0036 87.8641C8.71848 91.0338 3.72266 90.1352 2.0024 86.8988C-0.1925 82.7693 1.99324 77.8571 5.53053 75.4598C9.54875 72.7365 14.4734 72.5833 19.1131 72.8385C23.7994 73.0962 28.3724 73.4384 33.0411 72.7433C36.993 72.1446 40.8545 71.024 44.531 69.4089C52.09 66.1231 58.7274 60.92 63.8306 54.2798C66.2119 51.1535 68.4374 47.6398 69.8006 43.8973C70.8505 41.0145 71.348 37.2234 69.8602 34.4017C69.5366 33.7668 69.0805 33.2145 68.5249 32.7849C67.9693 32.3552 67.3282 32.0589 66.6482 31.9176C65.9682 31.7762 65.2662 31.7934 64.5934 31.9677C63.9206 32.142 63.2937 32.4692 62.7583 32.9255C60.2788 35.0275 59.6092 38.9305 61.505 41.6502C63.5392 44.5686 67.3778 45.569 70.6827 45.0376C75.2759 44.2991 78.9953 40.9437 82.5117 38.055L108.554 16.6607C112.848 13.1329 117.098 9.53673 121.448 6.08225C124.985 3.27302 129.301 0.549134 133.908 2.04962C135.765 2.65448 137.636 4.08688 138.101 6.14482C138.274 7.08716 138.196 8.06062 137.874 8.96026C137.552 9.85989 136.999 10.6516 136.275 11.2499C135.944 11.5408 135.558 11.7573 135.142 11.8856C134.725 12.014 134.288 12.0514 133.857 11.9955C133.426 11.9396 133.011 11.7916 132.639 11.5609C132.266 11.3302 131.944 11.0219 131.692 10.6554C130.722 9.25434 130.642 7.25674 131.201 5.67356C132.695 1.44249 138.179 0.999823 141.838 1.34393C146.155 1.79666 150.326 3.21707 154.059 5.5064C161.792 10.1541 167.511 17.7146 170.866 26.214C174.582 35.6314 175.728 46.0523 175.576 56.1619C175.545 58.2238 175.407 60.5046 174.285 62.2825C173.187 64.0237 171.27 64.5507 169.551 63.3863C168.991 63.0071 168.272 62.2683 168.418 61.4891C168.601 60.5108 170.485 60.5033 171.24 60.5407C173.305 60.6432 175.258 61.7205 176.737 63.173C180.253 66.6248 180.527 71.9065 180.068 76.6028C179.565 81.7583 178.129 86.886 178.699 92.1051C179.634 100.656 186.414 105.407 193.073 109.338C196.484 111.351 199.969 113.275 203.036 115.836C206.161 118.457 208.898 121.538 211.157 124.982C215.621 131.778 218.253 139.683 218.781 147.882C219.046 151.979 218.734 156.094 217.853 160.097C216.977 164.012 215.596 168.948 211.961 171.052C211.094 171.564 210.097 171.79 209.103 171.698C208.108 171.605 207.166 171.2 206.401 170.535C204.928 169.312 204.208 167.141 205.73 165.612C206.991 164.346 209.009 164.613 210.53 165.127C212.362 165.747 213.787 166.904 215.152 168.271C217.755 170.875 220.802 174.073 224.761 173.241C225.493 173.087 225.183 171.929 224.452 172.083C219.673 173.087 216.791 167.339 213.266 165.125C210.714 163.523 206.355 162.332 204.361 165.457C202.208 168.829 205.669 172.467 208.885 172.901C213.066 173.466 215.964 169.236 217.368 165.744C220.624 157.646 220.725 148.151 218.733 139.719C216.742 131.156 212.438 123.355 206.323 117.228C203.237 114.184 199.699 111.851 196.007 109.678C192.281 107.486 188.398 105.382 185.21 102.373C183.444 100.761 182.039 98.7704 181.093 96.5393C180.147 94.3082 179.682 91.8904 179.732 89.4546C179.766 83.8441 181.509 78.3996 181.401 72.7783C181.311 68.1176 179.78 63.5665 175.862 60.9425C174.247 59.809 172.319 59.2521 170.37 59.3565C169.578 59.4238 168.465 59.562 167.812 60.0755C167.286 60.4889 167.186 61.4569 167.292 62.0827C167.544 63.569 168.903 64.6012 170.222 65.0149C171.024 65.2817 171.885 65.2924 172.694 65.0456C173.502 64.7989 174.219 64.3061 174.753 63.6314C176.022 62.1151 176.462 60.0928 176.642 58.1456C176.885 55.5074 176.751 52.7975 176.638 50.155C176.182 39.416 174.131 28.4201 168.737 19.0933C164.153 11.1653 157.023 4.51785 148.473 1.57692C144.445 0.191102 139.666 -0.639422 135.509 0.620954C131.932 1.70535 129.192 4.75121 129.782 8.78525C130.282 12.2001 133.702 14.562 136.715 12.4067C137.426 11.8981 138.022 11.2367 138.464 10.4677C138.905 9.69878 139.181 8.84033 139.272 7.951C139.363 7.06168 139.268 6.16243 138.993 5.31465C138.718 4.46688 138.269 3.69055 137.677 3.03867C134.764 -0.117939 130.014 -0.095222 126.38 1.50899C124.191 2.47505 122.253 3.92249 120.384 5.42615C118.001 7.34287 115.652 9.3055 113.288 11.2472L84.8158 34.6382C82.5686 36.4844 80.3575 38.398 78.0352 40.1432C75.8682 41.7716 73.4774 43.28 70.8097 43.8028C67.0531 44.5391 61.1065 42.6082 61.562 37.6779C61.739 35.7632 62.9646 33.6484 64.838 33.0993C66.6743 32.5612 68.4081 33.7835 69.0907 35.514C70.5957 39.329 68.8283 43.693 67.0704 47.042C62.7178 55.3344 55.852 62.0876 47.8073 66.4819C43.7807 68.6865 39.4647 70.2714 34.9957 71.1865C29.9759 72.207 25.0502 72.0073 19.9748 71.6888C15.0548 71.38 9.88848 71.4115 5.50334 74.0645C1.90763 76.2399 -0.491062 80.1849 0.085318 84.5809C0.585839 88.3984 3.54464 91.3162 7.36071 90.9938C10.5637 90.7232 13.7818 87.8928 12.6454 84.2979C11.7043 81.3211 8.07194 78.9736 5.29369 80.9399C4.68075 81.3737 5.26079 82.4151 5.8796 81.9771H5.87965Z" fill="#3F3D56"/>
<path d="M251.893 168.704H223.767C223.327 168.705 222.906 168.885 222.595 169.207C222.285 169.528 222.11 169.964 222.109 170.419V188.539C222.11 188.994 222.285 189.43 222.595 189.751C222.906 190.073 223.327 190.254 223.767 190.254H251.893C252.332 190.254 252.753 190.073 253.064 189.751C253.375 189.43 253.55 188.994 253.55 188.539V170.419C253.55 169.964 253.375 169.528 253.064 169.207C252.753 168.885 252.332 168.705 251.893 168.704Z" fill="#F2F2F2"/>
<path d="M251.893 168.704H223.767C223.327 168.705 222.906 168.885 222.595 169.207C222.285 169.528 222.11 169.964 222.109 170.419V188.539C222.11 188.994 222.285 189.43 222.595 189.751C222.906 190.073 223.327 190.254 223.767 190.254H251.893C252.332 190.254 252.753 190.073 253.064 189.751C253.375 189.43 253.55 188.994 253.55 188.539V170.419C253.55 169.964 253.375 169.528 253.064 169.207C252.753 168.885 252.332 168.705 251.893 168.704ZM252.437 181.72C252.43 183.565 251.725 185.333 250.472 186.646C249.22 187.959 247.52 188.712 245.738 188.743C242.884 188.781 247.317 188.796 243.875 188.796C236.004 188.796 227.797 188.718 224.735 188.668C224.332 188.659 223.948 188.488 223.666 188.191C223.383 187.893 223.224 187.494 223.223 187.077V170.42C223.223 170.271 223.28 170.128 223.382 170.022C223.484 169.917 223.622 169.857 223.767 169.856H251.892C252.036 169.856 252.174 169.916 252.276 170.021C252.379 170.127 252.436 170.27 252.437 170.419L252.437 181.72Z" fill="#E6E6E6"/>
<path d="M248.431 158.27H227.001C226.812 158.27 226.627 158.331 226.472 158.444C226.317 158.557 226.2 158.717 226.136 158.902L222.826 168.51C222.777 168.653 222.761 168.807 222.781 168.958C222.801 169.108 222.856 169.252 222.94 169.377C223.025 169.501 223.137 169.603 223.268 169.673C223.398 169.743 223.543 169.78 223.691 169.78L252.43 169.833H252.432C252.584 169.833 252.734 169.794 252.867 169.719C253.001 169.645 253.115 169.537 253.199 169.405C253.283 169.274 253.334 169.123 253.347 168.966C253.361 168.81 253.336 168.652 253.277 168.507L253.226 168.529L253.277 168.507L249.275 158.846C249.205 158.675 249.087 158.529 248.937 158.427C248.786 158.324 248.61 158.27 248.431 158.27Z" fill="#E6E6E6"/>
<path d="M253.351 168.716C253.351 168.845 253.326 168.972 253.277 169.091L249.276 176.527C249.204 176.698 249.086 176.843 248.936 176.946C248.786 177.048 248.61 177.103 248.431 177.103H227.002C226.812 177.103 226.627 177.042 226.472 176.929C226.317 176.816 226.199 176.656 226.135 176.472L222.826 169.088C222.786 168.97 222.768 168.846 222.774 168.721C222.78 168.596 222.81 168.474 222.862 168.361C222.913 168.248 222.986 168.147 223.076 168.063C223.165 167.98 223.27 167.915 223.384 167.873C223.482 167.836 223.586 167.818 223.69 167.818L227.201 167.811L228.634 167.808L247.489 167.774L248.923 167.771L252.431 167.764H252.432C252.675 167.765 252.909 167.865 253.082 168.043C253.254 168.222 253.351 168.464 253.351 168.716Z" fill="#E6E6E6"/>
<path d="M225.875 182.296C226.3 182.296 232.135 182.665 232.135 183.105C232.135 183.544 226.3 183.888 225.875 183.888C225.671 183.888 225.475 183.805 225.331 183.655C225.187 183.506 225.106 183.303 225.106 183.092C225.106 182.881 225.187 182.679 225.331 182.529C225.475 182.38 225.671 182.296 225.875 182.296V182.296Z" fill="#E6E6E6"/>
<path d="M247.096 152.425H229.027C228.543 152.426 228.079 152.625 227.737 152.979C227.394 153.333 227.202 153.814 227.201 154.315V177.103H248.431C248.605 177.104 248.776 177.052 248.923 176.955V154.315C248.922 153.814 248.729 153.334 248.387 152.979C248.045 152.625 247.58 152.426 247.096 152.425Z" fill="#F2F2F2"/>
<path d="M240.2 153.957H230.297C229.857 153.958 229.434 154.139 229.122 154.462C228.81 154.784 228.635 155.222 228.634 155.678V177.103H247.489V161.5C247.487 159.5 246.718 157.583 245.351 156.169C243.985 154.755 242.132 153.96 240.2 153.957Z" fill="white"/>
<path d="M244.277 175.2H231.846C231.739 175.2 231.636 175.244 231.56 175.323C231.484 175.402 231.441 175.508 231.441 175.619C231.441 175.731 231.484 175.837 231.56 175.916C231.636 175.995 231.739 176.039 231.846 176.039H244.277C244.384 176.039 244.487 175.995 244.563 175.916C244.639 175.837 244.682 175.731 244.682 175.619C244.682 175.508 244.639 175.402 244.563 175.323C244.487 175.244 244.384 175.2 244.277 175.2Z" fill="#E4E4E4"/>
<path d="M244.277 173.542H231.846C231.739 173.542 231.635 173.586 231.559 173.665C231.483 173.744 231.441 173.85 231.441 173.962C231.441 174.073 231.483 174.18 231.559 174.259C231.635 174.337 231.739 174.381 231.846 174.381H244.277C244.33 174.381 244.383 174.371 244.432 174.349C244.481 174.328 244.526 174.298 244.563 174.259C244.601 174.22 244.631 174.173 244.651 174.122C244.672 174.071 244.682 174.017 244.682 173.962C244.682 173.907 244.672 173.852 244.651 173.801C244.631 173.75 244.601 173.704 244.563 173.665C244.526 173.626 244.481 173.595 244.432 173.574C244.383 173.553 244.33 173.542 244.277 173.542Z" fill="#E4E4E4"/>
<path d="M237.234 171.885H231.846C231.739 171.885 231.636 171.929 231.56 172.008C231.484 172.086 231.441 172.193 231.441 172.304C231.441 172.415 231.484 172.522 231.56 172.601C231.636 172.679 231.739 172.723 231.846 172.723H237.234C237.342 172.723 237.445 172.679 237.521 172.601C237.597 172.522 237.64 172.415 237.64 172.304C237.64 172.193 237.597 172.086 237.521 172.008C237.445 171.929 237.342 171.885 237.234 171.885Z" fill="#E4E4E4"/>
<path d="M244.277 168.413H231.846C231.739 168.413 231.636 168.458 231.56 168.536C231.484 168.615 231.442 168.722 231.442 168.833C231.442 168.944 231.484 169.05 231.56 169.129C231.636 169.208 231.739 169.252 231.846 169.252H244.277C244.33 169.252 244.383 169.242 244.432 169.221C244.481 169.2 244.526 169.169 244.564 169.13C244.602 169.091 244.632 169.045 244.652 168.994C244.673 168.943 244.683 168.888 244.683 168.833C244.683 168.777 244.673 168.723 244.652 168.672C244.632 168.621 244.602 168.574 244.564 168.535C244.526 168.496 244.481 168.466 244.432 168.445C244.383 168.424 244.33 168.413 244.277 168.413Z" fill="#E4E4E4"/>
<path d="M244.277 166.756H231.846C231.739 166.756 231.636 166.8 231.56 166.879C231.484 166.957 231.441 167.064 231.441 167.175C231.441 167.286 231.484 167.393 231.56 167.471C231.636 167.55 231.739 167.594 231.846 167.594H244.277C244.384 167.594 244.487 167.55 244.563 167.471C244.639 167.393 244.682 167.286 244.682 167.175C244.682 167.064 244.639 166.957 244.563 166.879C244.487 166.8 244.384 166.756 244.277 166.756Z" fill="#E4E4E4"/>
<path d="M237.235 165.098H231.846C231.739 165.098 231.635 165.142 231.559 165.221C231.483 165.299 231.441 165.406 231.441 165.517C231.441 165.629 231.483 165.735 231.559 165.814C231.635 165.893 231.739 165.937 231.846 165.937H237.235C237.342 165.937 237.445 165.893 237.521 165.814C237.597 165.735 237.64 165.629 237.64 165.517C237.64 165.406 237.597 165.299 237.521 165.221C237.445 165.142 237.342 165.098 237.235 165.098Z" fill="#E4E4E4"/>
<path d="M244.277 161.626H231.846C231.739 161.626 231.636 161.671 231.56 161.749C231.484 161.828 231.442 161.934 231.442 162.045C231.442 162.157 231.484 162.263 231.56 162.342C231.636 162.42 231.739 162.465 231.846 162.465H244.277C244.33 162.465 244.383 162.455 244.432 162.434C244.481 162.413 244.526 162.382 244.564 162.343C244.602 162.304 244.632 162.257 244.652 162.206C244.673 162.155 244.683 162.101 244.683 162.045C244.683 161.99 244.673 161.936 244.652 161.885C244.632 161.834 244.602 161.787 244.564 161.748C244.526 161.709 244.481 161.678 244.432 161.657C244.383 161.636 244.33 161.626 244.277 161.626Z" fill="#E4E4E4"/>
<path d="M244.277 159.969H231.846C231.739 159.969 231.636 160.013 231.56 160.092C231.484 160.171 231.442 160.277 231.442 160.388C231.442 160.499 231.484 160.606 231.56 160.684C231.636 160.763 231.739 160.808 231.846 160.808H244.277C244.33 160.808 244.383 160.797 244.432 160.776C244.481 160.755 244.526 160.724 244.564 160.685C244.602 160.646 244.632 160.6 244.652 160.549C244.673 160.498 244.683 160.443 244.683 160.388C244.683 160.333 244.673 160.278 244.652 160.227C244.632 160.176 244.602 160.13 244.564 160.091C244.526 160.052 244.481 160.021 244.432 160C244.383 159.979 244.33 159.968 244.277 159.969Z" fill="#E4E4E4"/>
<path d="M237.235 158.31H231.846C231.739 158.31 231.635 158.355 231.559 158.433C231.483 158.512 231.441 158.619 231.441 158.73C231.441 158.841 231.483 158.948 231.559 159.027C231.635 159.106 231.739 159.15 231.846 159.15H237.235C237.288 159.15 237.341 159.139 237.39 159.118C237.439 159.097 237.484 159.066 237.521 159.027C237.559 158.988 237.589 158.942 237.609 158.891C237.63 158.84 237.64 158.785 237.64 158.73C237.64 158.675 237.63 158.62 237.609 158.57C237.589 158.519 237.559 158.472 237.521 158.433C237.484 158.394 237.439 158.363 237.39 158.342C237.341 158.321 237.288 158.31 237.235 158.31Z" fill="#E4E4E4"/>
<path d="M103.365 79.7324C109.99 79.7324 115.36 74.1755 115.36 67.3207C115.36 60.4659 109.99 54.909 103.365 54.909C96.7409 54.909 91.3707 60.4659 91.3707 67.3207C91.3707 74.1755 96.7409 79.7324 103.365 79.7324Z" fill="#FFB6B6"/>
<path d="M117.058 60.2141C115.796 58.1942 113.428 56.8481 111.133 57.2263C110.919 55.7106 110.308 54.2845 109.365 53.1034C108.422 51.9223 107.185 51.0315 105.787 50.5279C104.389 50.0243 102.884 49.9273 101.436 50.2473C99.9885 50.5674 98.6534 51.2923 97.5764 52.3432C97.2221 52.0851 96.8096 51.9261 96.3785 51.8814C95.9475 51.8368 95.5126 51.9081 95.116 52.0884C94.326 52.4601 93.6387 53.0309 93.1171 53.7486C91.8 55.4482 90.953 57.4855 90.6661 59.6438C90.3792 61.802 90.6633 64.0003 91.488 66.0048C91.2075 64.9495 92.2295 63.9568 93.2621 63.72C94.2946 63.4832 95.3778 63.7072 96.4249 63.553C97.767 63.3554 98.9734 62.5498 100.318 62.3685C101.447 62.2161 102.583 62.5158 103.685 62.8163C104.787 63.1166 105.92 63.423 107.051 63.284C108.182 63.145 109.64 67.5815 109.62 70.7063C109.616 71.2985 109.734 72.0587 110.294 72.1844C110.982 72.3391 111.381 71.3555 112.037 71.0875C112.339 70.9979 112.663 71.0331 112.941 71.1858C113.218 71.3385 113.427 71.5967 113.525 71.906C113.607 72.2205 113.616 72.5508 113.55 72.8695C113.485 73.1881 113.346 73.486 113.147 73.7382C112.744 74.2382 112.266 74.6676 111.73 75.0098L112 75.2421C112.45 75.8561 113.381 75.8827 114.028 75.5028C114.647 75.069 115.149 74.4784 115.484 73.7873C116.682 71.7262 117.733 69.5301 118.155 67.1652C118.578 64.8003 118.319 62.2339 117.058 60.2141Z" fill="#2F2E41"/>
<path d="M117.436 284.671L110.958 284.67L107.876 258.815L117.437 258.815L117.436 284.671Z" fill="#FFB6B6"/>
<path d="M117.664 291.663L97.7433 291.663V291.402C97.7434 289.274 98.5604 287.234 100.014 285.729C101.469 284.224 103.441 283.379 105.497 283.379H105.497L109.136 280.522L115.925 283.379L117.664 283.379L117.664 291.663Z" fill="#2F2E41"/>
<path d="M129.117 272.835L124.035 276.991L106.121 258.687L113.622 252.551L129.117 272.835Z" fill="#FFB6B6"/>
<path d="M133.487 278.174L117.86 290.957L117.703 290.753C116.428 289.083 115.846 286.958 116.085 284.845C116.324 282.731 117.364 280.803 118.977 279.483L118.978 279.483L120.12 274.907L127.158 272.791L128.523 271.675L133.487 278.174Z" fill="#2F2E41"/>
<path d="M83.938 163.477L83.5425 171.022L85.466 173.426L85.2455 180.973L87.1118 185.912L88.4243 201.626L106.807 267.196L123.372 261.698L105.283 200.575L127.047 200.013L127.784 165.548L123.927 157.833L83.938 163.477Z" fill="#2F2E41"/>
<path d="M124.954 194.817L127.047 200.013L118.954 273.176L107.599 274.034L102.695 192.24L124.954 194.817Z" fill="#2F2E41"/>
<path d="M113.825 87.0001L110.097 81.6595L98.0569 82.1588L97.8259 86.271L89.8279 164.44L97.6823 164.258L107.432 166.614L126.186 159.822L113.825 87.0001Z" fill="black"/>
<path d="M92.9164 165.886H74.4517L79.269 130.701L81.2223 116.439C81.2223 116.439 79.8397 106.246 79.1703 100.92C79.1079 100.352 79.203 99.777 79.4446 99.2625C79.6636 98.7805 79.9495 98.3342 80.2933 97.9378C82.5392 95.258 87.5906 92.934 90.7583 91.6622C92.3897 91.0112 93.5236 90.6365 93.5236 90.6365L97.8252 86.2724C104 94.255 92.9164 165.886 92.9164 165.886Z" fill="#3F3D56"/>
<path d="M111.487 84.0941L117.344 87.5677C117.344 87.5677 134.692 90.5162 136.38 97.2581L129.994 117.204V159.124L114.513 165.548C114.513 165.548 101.159 97.8235 111.487 84.0941Z" fill="#3F3D56"/>
<path opacity="0.4" d="M105.557 190.546L102.695 224.849L107.568 264.771" fill="black"/>
<path d="M36.4589 126.644C36.9361 126.289 37.4826 126.046 38.06 125.934C38.6374 125.821 39.2317 125.841 39.8009 125.992C40.3702 126.142 40.9005 126.42 41.3547 126.806C41.8089 127.192 42.1758 127.676 42.4295 128.225L56.622 126.564L53.2582 133.41L40.2964 133.937C39.3779 134.318 38.3565 134.336 37.4258 133.989C36.4951 133.642 35.7198 132.953 35.2468 132.054C34.7738 131.155 34.6359 130.108 34.8593 129.111C35.0827 128.113 35.6519 127.236 36.4589 126.644L36.4589 126.644Z" fill="#FFB6B6"/>
<path d="M96.0265 96.6668L100.088 99.1773L77.3415 132.336L49.5777 134.777L48.4722 126.574L68.9283 120.224L79.0395 99.9437L96.0265 96.6668Z" fill="#3F3D56"/>
<path d="M178.811 123.841C178.334 123.486 177.787 123.244 177.21 123.131C176.632 123.018 176.038 123.038 175.469 123.189C174.9 123.34 174.369 123.618 173.915 124.003C173.461 124.389 173.094 124.873 172.84 125.422L158.648 123.761L162.012 130.607L174.973 131.135C175.892 131.515 176.913 131.533 177.844 131.186C178.775 130.839 179.55 130.151 180.023 129.251C180.496 128.352 180.634 127.305 180.411 126.308C180.187 125.311 179.618 124.433 178.811 123.841V123.841Z" fill="#FFB6B6"/>
<path d="M119.243 93.8639L115.182 96.3745L137.928 129.533L165.692 131.974L166.797 123.771L146.342 117.421L136.231 97.1409L119.243 93.8639Z" fill="#3F3D56"/>
<path d="M63.9412 86.0616V85.6234H56.8416V75.4005H56.4192V85.6234H48.2826V77.7286C48.1403 77.8444 47.9999 77.9635 47.8613 78.0859V85.6234H42.4872C42.4275 85.7683 42.3699 85.9144 42.3156 86.0616H47.8613V94.6519H40.9756C40.9821 94.7991 40.9919 94.944 41.0038 95.0901H47.8613V101.943H42.7239C42.7869 102.09 42.8531 102.235 42.9226 102.379H47.8613V108.14H48.2826V102.379H56.4192V108.14H56.8416V102.379H63.9412V101.943H56.8416C56.8415 101.043 57.0126 100.152 57.3454 99.3205C57.6782 98.4889 58.166 97.7334 58.781 97.097C59.3961 96.4605 60.1262 95.9558 60.9298 95.6114C61.7334 95.2671 62.5947 95.0899 63.4645 95.0901H63.9412V94.6519H56.8416V86.0616H63.9412ZM56.4192 101.943H48.2826V95.0901H56.4192V101.943ZM56.4192 94.6519H48.2826V94.48C48.2827 93.3744 48.4932 92.2796 48.9021 91.2582C49.3111 90.2368 49.9104 89.3088 50.666 88.5271C51.4215 87.7453 52.3185 87.1253 53.3056 86.7022C54.2928 86.2792 55.3508 86.0615 56.4192 86.0616V94.6519Z" fill="#E6E6E6"/>
<path d="M125.624 25.4083C125.569 25.4319 125.507 25.4318 125.451 25.4081C125.396 25.3843 125.352 25.3388 125.329 25.2815L124.741 23.8116C124.718 23.7542 124.718 23.6898 124.741 23.6325C124.764 23.5752 124.808 23.5297 124.864 23.5059C124.919 23.4822 124.981 23.4822 125.037 23.506C125.092 23.5298 125.136 23.5753 125.159 23.6327L125.747 25.1026C125.77 25.16 125.77 25.2243 125.747 25.2816C125.724 25.3389 125.68 25.3845 125.624 25.4083Z" fill="#3F3D56"/>
<path d="M137.482 14.5185L135.727 10.1308C135.594 9.79727 135.399 9.49423 135.152 9.23893C134.905 8.98364 134.613 8.7811 134.29 8.64287C133.968 8.50464 133.623 8.43344 133.274 8.43332C132.925 8.4332 132.58 8.50417 132.258 8.64218L123.274 12.4891C122.952 12.6271 122.659 12.8295 122.412 13.0846C122.165 13.3397 121.97 13.6426 121.836 13.976C121.702 14.3094 121.634 14.6668 121.634 15.0277C121.633 15.3886 121.702 15.746 121.835 16.0795L131.462 40.1509C131.596 40.4844 131.791 40.7875 132.038 41.0428C132.284 41.298 132.577 41.5006 132.899 41.6388C133.221 41.777 133.567 41.8482 133.915 41.8484C134.264 41.8485 134.61 41.7775 134.932 41.6395L143.916 37.7926C144.238 37.6546 144.531 37.4522 144.777 37.1971C145.024 36.942 145.22 36.6391 145.354 36.3057C145.487 35.9723 145.556 35.6149 145.556 35.254C145.556 34.8931 145.488 34.5357 145.354 34.2022L138.731 17.6418C138.752 17.633 138.77 17.6203 138.786 17.6042C138.801 17.5881 138.814 17.569 138.822 17.548C138.83 17.5269 138.835 17.5044 138.835 17.4816C138.835 17.4589 138.83 17.4363 138.822 17.4153L137.701 14.6124C137.693 14.5913 137.68 14.5722 137.665 14.5561C137.649 14.54 137.631 14.5273 137.61 14.5185C137.59 14.5098 137.568 14.5053 137.546 14.5053C137.524 14.5053 137.503 14.5098 137.482 14.5185Z" fill="#3F3D56"/>
<path d="M135.212 10.3714L144.825 34.4082C145.025 34.9074 145.026 35.4681 144.829 35.9684C144.631 36.4687 144.251 36.8682 143.771 37.08C143.765 37.084 143.758 37.0873 143.751 37.0899L134.724 40.9555C134.238 41.1637 133.692 41.1634 133.205 40.9549C132.719 40.7463 132.333 40.3466 132.132 39.8435L122.519 15.8066C122.419 15.5576 122.368 15.2906 122.368 15.0211C122.369 14.7515 122.42 14.4847 122.52 14.2357C122.62 13.9868 122.766 13.7606 122.95 13.5702C123.135 13.3797 123.353 13.2287 123.594 13.1257L124.689 12.6569C124.69 12.817 124.729 12.9744 124.802 13.1153C124.875 13.2562 124.981 13.3762 125.11 13.4648C125.239 13.5534 125.387 13.6078 125.541 13.6232C125.695 13.6387 125.85 13.6146 125.993 13.5533L131.14 11.3494C131.252 11.3012 131.354 11.2303 131.44 11.141C131.528 11.0512 131.598 10.9442 131.646 10.8263C131.694 10.7083 131.719 10.5817 131.72 10.4536C131.721 10.3256 131.697 10.1986 131.65 10.0801C131.604 9.96153 131.535 9.8537 131.448 9.76277L132.622 9.26008C133.107 9.05207 133.653 9.05229 134.139 9.26069C134.625 9.46908 135.011 9.86859 135.212 10.3714Z" fill="black"/>
<path d="M124.621 22.9007C124.566 22.9243 124.504 22.9242 124.448 22.9005C124.393 22.8767 124.349 22.8312 124.326 22.7739L123.738 21.304C123.715 21.2466 123.715 21.1822 123.738 21.1249C123.761 21.0676 123.805 21.0221 123.861 20.9983C123.916 20.9746 123.978 20.9746 124.034 20.9984C124.089 21.0222 124.133 21.0677 124.156 21.1251L124.744 22.595C124.767 22.6524 124.767 22.7167 124.744 22.774C124.721 22.8313 124.677 22.8769 124.621 22.9007Z" fill="#3F3D56"/>
<path d="M123.439 20.0651C123.383 20.0887 123.321 20.0887 123.266 20.0649C123.21 20.0412 123.166 19.9956 123.143 19.9384L122.555 18.4684C122.544 18.44 122.538 18.4095 122.538 18.3787C122.538 18.3479 122.544 18.3174 122.555 18.289C122.566 18.2605 122.583 18.2346 122.604 18.2129C122.625 18.1911 122.65 18.1738 122.677 18.162C122.705 18.1503 122.734 18.1442 122.764 18.1443C122.794 18.1443 122.823 18.1504 122.851 18.1622C122.878 18.1741 122.903 18.1914 122.924 18.2132C122.945 18.2351 122.962 18.261 122.973 18.2895L123.561 19.7594C123.584 19.8168 123.584 19.8812 123.561 19.9385C123.538 19.9958 123.494 20.0413 123.439 20.0651Z" fill="#3F3D56"/>
<path d="M126.748 12.065C126.725 12.0077 126.725 11.9433 126.748 11.886C126.771 11.8287 126.815 11.7832 126.87 11.7594L128.291 11.151C128.346 11.1273 128.409 11.1273 128.464 11.1511C128.519 11.1749 128.563 11.2204 128.586 11.2778C128.609 11.3351 128.609 11.3995 128.586 11.4568C128.563 11.5141 128.519 11.5597 128.464 11.5834L127.043 12.1917C126.988 12.2154 126.926 12.2153 126.87 12.1915C126.815 12.1678 126.771 12.1223 126.748 12.065Z" fill="white"/>
<path d="M129.171 11.2612C129.296 11.2612 129.397 11.1565 129.397 11.0273C129.397 10.8981 129.296 10.7933 129.171 10.7933C129.046 10.7933 128.945 10.8981 128.945 11.0273C128.945 11.1565 129.046 11.2612 129.171 11.2612Z" fill="white"/>
<path d="M178.206 115.069C178.178 115.069 178.149 115.069 178.12 115.068C177.785 115.055 177.457 114.959 177.165 114.787C176.873 114.615 176.625 114.373 176.443 114.08C175.079 111.971 173.405 110.095 171.482 108.52C170.318 107.557 169.101 106.662 167.925 105.796C164.89 103.563 162.032 101.46 160.445 98.5535C156.986 92.2167 161.06 83.3904 166.879 79.432C173.407 74.9926 181.994 74.2962 190.3 74.205C191.163 74.1955 192.027 74.1908 192.891 74.1909C207.858 74.1968 222.792 75.6099 237.512 78.4126C242.406 79.347 247.529 80.4917 251.646 83.2696C255.739 86.0311 258.226 90.3797 257.984 94.3486C257.629 100.143 251.694 104.472 246.289 105.604C241.137 106.682 235.785 105.953 230.119 105.182C228.868 105.012 227.575 104.835 226.296 104.682C212.397 103.02 186.286 108.144 185.181 108.363L184.085 108.58L179.833 114.243C179.641 114.501 179.395 114.71 179.113 114.853C178.831 114.996 178.52 115.07 178.206 115.069Z" fill="black"/>
<path d="M240.102 86.8044H181.354C181.015 86.8044 180.69 86.665 180.45 86.417C180.21 86.1689 180.075 85.8325 180.075 85.4817C180.075 85.1309 180.21 84.7945 180.45 84.5464C180.69 84.2984 181.015 84.159 181.354 84.159H240.102C240.441 84.159 240.766 84.2984 241.006 84.5464C241.246 84.7945 241.38 85.1309 241.38 85.4817C241.38 85.8325 241.246 86.1689 241.006 86.417C240.766 86.665 240.441 86.8044 240.102 86.8044Z" fill="white"/>
<path d="M240.102 94.9231H181.354C181.015 94.923 180.69 94.7837 180.451 94.536C180.211 94.2883 180.076 93.9523 180.076 93.6018C180.076 93.2513 180.21 92.915 180.449 92.6668C180.688 92.4185 181.012 92.2786 181.351 92.2777H240.102C240.441 92.2784 240.765 92.418 241.005 92.666C241.244 92.9139 241.378 93.25 241.378 93.6004C241.378 93.9508 241.244 94.2869 241.005 94.5349C240.765 94.7829 240.441 94.9225 240.102 94.9231Z" fill="white"/>
<path d="M188.2 103.042H181.354C181.015 103.041 180.69 102.901 180.451 102.653C180.212 102.405 180.078 102.069 180.078 101.719C180.078 101.369 180.212 101.032 180.451 100.784C180.69 100.537 181.015 100.397 181.354 100.396H188.2C188.539 100.397 188.863 100.537 189.102 100.784C189.342 101.032 189.476 101.369 189.476 101.719C189.476 102.069 189.342 102.405 189.102 102.653C188.863 102.901 188.539 103.041 188.2 103.042Z" fill="white"/>
<path d="M178.932 124.291C182.363 124.291 185.145 121.412 185.145 117.861C185.145 114.31 182.363 111.432 178.932 111.432C175.5 111.432 172.718 114.31 172.718 117.861C172.718 121.412 175.5 124.291 178.932 124.291Z" fill="white"/>
<path d="M178.932 124.369C177.688 124.369 176.472 123.987 175.438 123.272C174.403 122.557 173.597 121.541 173.121 120.352C172.645 119.163 172.521 117.854 172.763 116.592C173.006 115.329 173.605 114.17 174.485 113.26C175.364 112.349 176.485 111.73 177.705 111.479C178.925 111.227 180.189 111.356 181.338 111.849C182.488 112.341 183.47 113.176 184.161 114.246C184.852 115.316 185.221 116.574 185.221 117.861C185.219 119.587 184.556 121.241 183.377 122.461C182.198 123.681 180.599 124.367 178.932 124.369Z" fill="#3F3D56"/>
<path d="M178.466 120.431C178.453 120.431 178.44 120.43 178.427 120.43C178.31 120.424 178.195 120.392 178.091 120.336C177.987 120.28 177.896 120.202 177.824 120.106L176.786 118.725C176.72 118.637 176.672 118.538 176.644 118.431C176.615 118.325 176.608 118.213 176.621 118.104C176.634 117.994 176.668 117.888 176.721 117.792C176.774 117.696 176.844 117.612 176.928 117.544L176.966 117.514C177.05 117.446 177.146 117.396 177.249 117.367C177.352 117.337 177.46 117.329 177.566 117.343C177.672 117.357 177.774 117.392 177.867 117.447C177.96 117.501 178.041 117.574 178.107 117.661C178.159 117.731 178.226 117.788 178.301 117.829C178.377 117.87 178.461 117.893 178.546 117.897C178.631 117.902 178.716 117.887 178.795 117.854C178.875 117.821 178.946 117.771 179.005 117.707L181.113 115.404C181.262 115.242 181.466 115.148 181.681 115.142C181.897 115.135 182.106 115.218 182.262 115.371L182.297 115.405C182.375 115.481 182.437 115.572 182.48 115.673C182.524 115.774 182.548 115.883 182.551 115.993C182.554 116.104 182.535 116.214 182.497 116.317C182.459 116.42 182.402 116.514 182.328 116.595L179.056 120.168C178.98 120.251 178.889 120.317 178.788 120.362C178.686 120.408 178.577 120.431 178.466 120.431Z" fill="white"/>
<path d="M62.9163 34.7527L59.115 11.0983C59.0386 10.6194 59.1488 10.1288 59.4216 9.73394C59.6944 9.3391 60.1073 9.07235 60.5699 8.9922L77.8341 6.02159C78.2969 5.94252 78.7711 6.05663 79.1526 6.33887C79.5342 6.62112 79.792 7.04845 79.8694 7.52713L83.6707 31.1815C83.7471 31.6604 83.6369 32.1511 83.3641 32.5459C83.0913 32.9407 82.6784 33.2075 82.2158 33.2876L64.9516 36.2582C64.4888 36.3373 64.0146 36.2232 63.6331 35.941C63.2515 35.6587 62.9937 35.2314 62.9163 34.7527Z" fill="#3F3D56"/>
<path d="M63.0923 27.3802L60.6485 12.173C60.5769 11.7246 60.6802 11.265 60.9357 10.8953C61.1911 10.5255 61.5779 10.2757 62.0111 10.2006L76.8482 7.6476C77.2816 7.57353 77.7257 7.68038 78.0831 7.94471C78.4404 8.20904 78.6819 8.60925 78.7544 9.05756L82.1371 30.1068C82.2086 30.5552 82.1053 31.0148 81.8499 31.3845C81.5944 31.7543 81.2076 32.0041 80.7744 32.0792L71.5831 33.6607C69.6526 33.9906 67.6745 33.5146 66.0827 32.3372C64.4909 31.1598 63.4155 29.3771 63.0923 27.3802Z" fill="white"/>
<path d="M63.7327 16.0028C63.6628 15.5645 63.7637 15.1155 64.0133 14.7541C64.2629 14.3928 64.6409 14.1487 65.0642 14.0753L75.3567 12.3043C75.5664 12.2682 75.781 12.2752 75.9881 12.3249C76.1952 12.3747 76.3908 12.4661 76.5638 12.594C76.7368 12.722 76.8837 12.8839 76.9962 13.0706C77.1087 13.2573 77.1845 13.4651 77.2194 13.6821C77.2543 13.8992 77.2475 14.1212 77.1995 14.3355C77.1514 14.5498 77.063 14.7522 76.9394 14.9312C76.8158 15.1102 76.6593 15.2622 76.4788 15.3786C76.2984 15.495 76.0976 15.5735 75.8879 15.6096L65.5954 17.3806C65.1719 17.4529 64.7379 17.3485 64.3887 17.0902C64.0395 16.8319 63.8036 16.4408 63.7327 16.0028Z" fill="black"/>
<path d="M64.5589 21.1442C64.489 20.706 64.5899 20.257 64.8395 19.8956C65.0891 19.5343 65.4671 19.2901 65.8904 19.2168L76.1829 17.4458C76.6065 17.3729 77.0407 17.4771 77.39 17.7355C77.7393 17.9939 77.9751 18.3853 78.0456 18.8236C78.116 19.2619 78.0153 19.7112 77.7656 20.0727C77.5159 20.4342 77.1376 20.6782 76.714 20.7511L66.4216 22.5221C65.9981 22.5944 65.5641 22.49 65.2149 22.2317C64.8657 21.9734 64.6298 21.5823 64.5589 21.1442Z" fill="black"/>
<path d="M65.3852 26.2858C65.3152 25.8475 65.4162 25.3985 65.6658 25.0371C65.9154 24.6758 66.2934 24.4317 66.7167 24.3583L77.0092 22.5873C77.2189 22.5512 77.4335 22.5582 77.6406 22.6079C77.8477 22.6577 78.0433 22.7491 78.2163 22.877C78.3893 23.005 78.5362 23.1669 78.6487 23.3536C78.7612 23.5403 78.837 23.7481 78.8719 23.9651C78.9067 24.1822 78.9 24.4042 78.8519 24.6185C78.8039 24.8328 78.7155 25.0352 78.5919 25.2142C78.4682 25.3932 78.3117 25.5452 78.1313 25.6616C77.9509 25.778 77.7501 25.8565 77.5403 25.8926L67.2479 27.6636C66.8244 27.736 66.3904 27.6315 66.0412 27.3732C65.692 27.1149 65.4561 26.7238 65.3852 26.2858Z" fill="black"/>
<path d="M153.118 275.321L153.391 268.954C156.244 267.376 159.425 266.543 162.66 266.526C158.208 270.292 158.765 277.552 155.747 282.616C154.794 284.188 153.511 285.518 151.994 286.508C150.476 287.497 148.763 288.12 146.982 288.332L143.256 290.692C142.745 287.743 142.858 284.715 143.587 281.815C144.316 278.916 145.643 276.215 147.478 273.897C148.52 272.608 149.714 271.459 151.034 270.479C151.926 272.913 153.118 275.321 153.118 275.321Z" fill="#F2F2F2"/>
<path d="M202.51 291.378C202.51 291.46 202.495 291.541 202.465 291.616C202.434 291.692 202.39 291.761 202.334 291.818C202.278 291.876 202.212 291.922 202.139 291.953C202.066 291.984 201.988 292 201.909 292H40.1413C39.9819 292 39.829 291.934 39.7163 291.818C39.6036 291.701 39.5403 291.543 39.5403 291.378C39.5403 291.213 39.6036 291.055 39.7163 290.938C39.829 290.822 39.9819 290.756 40.1413 290.756H201.909C201.988 290.756 202.066 290.772 202.139 290.803C202.212 290.834 202.278 290.88 202.334 290.938C202.39 290.996 202.434 291.064 202.465 291.14C202.495 291.215 202.51 291.296 202.51 291.378Z" fill="#CCCCCC"/>
<path d="M40.5312 123.44C37.6622 123.381 22.2514 122.923 19.7243 123.035C19.5814 122.518 14.7907 128.87 14.6742 128.91C14.5965 128.995 14.5399 129.098 14.509 129.21C14.4782 129.322 14.4741 129.441 14.4971 129.555C14.5201 129.67 14.5695 129.776 14.6411 129.867C14.7127 129.957 14.8043 130.028 14.9082 130.074C15.1898 130.251 40.034 129.775 40.335 129.837C40.4652 129.835 40.5922 129.795 40.7013 129.722C40.8104 129.648 40.8972 129.544 40.9517 129.422L41.1178 129.037C41.135 128.378 41.3433 125.014 41.1563 124.438C41.2022 124.33 41.2215 124.212 41.2123 124.095C41.2032 123.977 41.1659 123.864 41.104 123.765C41.042 123.666 40.9572 123.584 40.8572 123.527C40.7572 123.471 40.6452 123.441 40.5312 123.44Z" fill="#3F3D56"/>
<path opacity="0.17" d="M41.1177 129.036C40.9719 129.399 40.7854 129.854 40.3349 129.838L15.1705 130.13C15.0515 130.128 14.9348 130.095 14.8317 130.034C14.7285 129.972 14.6424 129.885 14.5816 129.779C14.5208 129.673 14.4873 129.553 14.4843 129.429C14.4814 129.306 14.5091 129.184 14.5648 129.076L41.1177 129.036Z" fill="black"/>
<path d="M19.8419 122.957C19.571 122.473 12.8433 88.0265 12.2818 87.7384L7.68849 81.924L7.27795 81.6046C6.70705 81.2801 5.33761 81.4995 5.46094 82.4018C6.54004 87.7553 13.4809 118.246 13.633 122.999L14.4685 129.055C14.4834 129.158 14.519 129.257 14.573 129.345C14.627 129.433 14.6982 129.508 14.7821 129.566C14.8659 129.624 14.9605 129.662 15.0598 129.68C15.159 129.698 15.2607 129.693 15.3583 129.668C15.5978 129.641 15.8265 129.55 16.0217 129.404C16.2169 129.258 16.3721 129.062 16.4718 128.835C16.5344 128.622 20.1564 123.082 19.8419 122.957Z" fill="#3F3D56"/>
<path opacity="0.17" d="M7.68732 81.9243L16.4725 128.837C16.1787 129.606 14.804 130.145 14.4838 129.136C14.4782 129.134 5.47112 82.4306 5.46196 82.4027C5.36599 81.2787 7.16088 81.2431 7.68732 81.9243Z" fill="black"/>
<path d="M7.95203 83.8425L12.414 90.2778L17.422 114.889L15.0937 116.99L7.95203 83.8425Z" fill="black"/>
<path d="M37.6511 126.758L38.8855 126.81C38.9048 126.436 38.9645 126.065 39.0635 125.705C39.2493 124.792 39.4157 123.707 38.6456 123.711C38.1232 123.659 37.9452 124.344 37.8523 125.088C37.8284 125.65 37.7611 126.208 37.6511 126.758Z" fill="#2F2E41"/>
<path d="M30.5698 125.04L31.4018 125.072L31.8042 125.088C31.7965 124.632 32.0016 123.691 31.5024 123.459C31.423 123.423 31.3373 123.406 31.2509 123.407C30.7826 123.379 30.6433 123.747 30.6008 124.172C30.5737 124.428 30.5853 124.7 30.5776 124.912C30.5775 124.956 30.5737 125 30.5698 125.04Z" fill="#2F2E41"/>
<path d="M28.1049 124.936L28.9407 124.972L29.3393 124.988C29.3315 124.464 29.5985 123.319 28.7859 123.303C28.0352 123.259 28.1319 124.248 28.1126 124.808C28.1126 124.852 28.1087 124.896 28.1049 124.936Z" fill="#2F2E41"/>
<path d="M25.64 124.836L26.472 124.868L26.8744 124.884C26.8667 124.364 27.1337 123.219 26.3211 123.203C25.5704 123.154 25.6671 124.143 25.6477 124.708C25.6477 124.752 25.6439 124.796 25.64 124.836Z" fill="#2F2E41"/>
<path d="M23.175 124.732L24.0109 124.768L24.4094 124.784C24.4017 124.26 24.6687 123.118 23.8561 123.098C23.1054 123.054 23.2021 124.043 23.1828 124.604C23.1828 124.648 23.1789 124.692 23.175 124.732Z" fill="#2F2E41"/>
<path d="M20.7101 124.632L21.542 124.664L21.9445 124.68C21.9367 124.2 22.1612 123.195 21.5653 123.022H21.5614C21.5061 123.005 21.4487 122.997 21.3911 122.998C21.3209 122.992 21.2501 122.999 21.1822 123.018H21.1783C20.6598 123.158 20.7333 123.999 20.7178 124.504C20.7178 124.548 20.714 124.592 20.7101 124.632Z" fill="#2F2E41"/>
<path d="M35.163 124.36L36.3974 124.412C36.3974 124.364 36.3973 124.312 36.4012 124.252C36.4318 123.947 36.437 123.64 36.4167 123.335C36.3741 122.998 36.2348 122.734 35.844 122.726C35.4454 122.702 35.2868 122.966 35.2249 123.307C35.2105 123.365 35.2001 123.423 35.1939 123.483V123.487C35.163 123.799 35.1823 124.135 35.163 124.36Z" fill="#2F2E41"/>
<path d="M32.698 124.256L33.9324 124.308C33.9586 123.964 33.9663 123.619 33.9556 123.275C33.9208 122.922 33.7853 122.634 33.379 122.626C32.9688 122.598 32.8102 122.886 32.7483 123.243C32.6903 123.587 32.7212 123.999 32.698 124.256Z" fill="#2F2E41"/>
<path d="M30.2332 124.155L30.6008 124.172L31.4675 124.208C31.4637 124.015 31.4985 123.735 31.5024 123.459C31.5057 123.376 31.5031 123.293 31.4946 123.211C31.4637 122.838 31.336 122.53 30.9142 122.522C30.4847 122.498 30.3338 122.806 30.2796 123.182C30.2254 123.519 30.2564 123.907 30.2332 124.155Z" fill="#2F2E41"/>
<path d="M35.1862 126.658L36.4206 126.706C36.4167 126.186 36.6798 125.04 35.8672 125.024C35.0546 124.972 35.2326 126.134 35.1862 126.658Z" fill="#2F2E41"/>
<path d="M32.7213 126.554L33.9557 126.606C33.9518 126.081 34.215 124.936 33.4024 124.92C32.5897 124.872 32.7677 126.033 32.7213 126.554Z" fill="#2F2E41"/>
<path d="M30.2563 126.454L31.4907 126.502C31.4869 126.129 31.6223 125.441 31.4017 125.072C31.3536 124.991 31.285 124.924 31.2033 124.88C31.1215 124.835 31.0296 124.815 30.9374 124.82C30.8107 124.806 30.6833 124.839 30.5775 124.912C30.1828 125.181 30.295 126.029 30.2563 126.454Z" fill="#2F2E41"/>
<path d="M27.7914 126.35L29.0258 126.402C29.0219 126.029 29.1535 125.345 28.9406 124.972C28.8926 124.889 28.8236 124.822 28.741 124.777C28.6585 124.732 28.5656 124.711 28.4724 124.716C28.3457 124.702 28.2182 124.734 28.1126 124.808C27.7179 125.084 27.8301 125.929 27.7914 126.35Z" fill="#2F2E41"/>
<path d="M25.3265 126.25L26.5609 126.298C26.5571 125.925 26.6925 125.237 26.4719 124.868C26.4238 124.787 26.3552 124.72 26.2735 124.676C26.1917 124.631 26.0998 124.611 26.0076 124.616C25.8809 124.602 25.7535 124.635 25.6477 124.708C25.253 124.976 25.3652 125.825 25.3265 126.25Z" fill="#2F2E41"/>
<path d="M22.8616 126.146L24.096 126.198C24.0921 125.825 24.2237 125.141 24.0108 124.768C23.9631 124.685 23.8942 124.617 23.8116 124.572C23.729 124.527 23.6359 124.506 23.5426 124.512C23.4159 124.497 23.2884 124.53 23.1827 124.604C22.788 124.88 22.9003 125.725 22.8616 126.146Z" fill="#2F2E41"/>
<path d="M20.3967 126.045L21.6311 126.093C21.6273 125.721 21.7588 125.036 21.5421 124.664C21.4944 124.582 21.4258 124.515 21.344 124.471C21.2621 124.426 21.17 124.406 21.0778 124.412C20.9511 124.398 20.8237 124.43 20.7179 124.504C20.3232 124.776 20.4354 125.621 20.3967 126.045Z" fill="#2F2E41"/>
</g>
<defs>
<clipPath id="clip0_12_217">
<rect width="258" height="292" fill="white"/>
</clipPath>
</defs>
</svg>
